Coordinates
version=1
nRows=14
nColumns=46
inDegrees=yes

Units are S.I. units (second, meters, Newtons, ...)
Angles are in degrees.

endheader
time	pelvis_tilt	pelvis_list	pelvis_rotation	pelvis_tx	pelvis_ty	pelvis_tz	bb_angle	bb_tx	bb_ty	bb_tz	hip_flexion_r	hip_adduction_r	hip_rotation_r	knee_angle_r	knee_angle_r_beta	ankle_angle_r	subtalar_angle_r	mtp_angle_r	crank_angle_r	hip_flexion_l	hip_adduction_l	hip_rotation_l	knee_angle_l	knee_angle_l_beta	ankle_angle_l	subtalar_angle_l	mtp_angle_l	crank_angle_l	lumbar_extension	lumbar_bending	lumbar_rotation	arm_flex_r	arm_add_r	arm_rot_r	elbow_flex_r	pro_sup_r	wrist_flex_r	wrist_dev_r	arm_flex_l	arm_add_l	arm_rot_l	elbow_flex_l	pro_sup_l	wrist_flex_l	wrist_dev_l
      5.00000000	    -23.15834771	     -6.23510335	      3.08455728	      0.06407866	      0.99144647	     -0.22924377	      0.00000000	      0.50000000	      0.00000000	      0.25000000	     77.10381966	     -7.58684968	     -3.01720448	    100.87059149	      1.76052394	    -12.50425074	    -11.46942187	      0.00000000	      0.00000000	     73.44283366	     -1.97239219	     10.43922552	     54.67768355	      0.95430561	     -3.64931173	    -18.01146636	      0.00000000	      0.00000000	    -46.36152764	      9.77462122	      1.37848415	     85.24385277	     -8.52672484	     28.21677546	     53.37534469	     48.40944102	      0.00000000	      0.00000000	     89.24455831	    -34.20738562	     56.03675464	     64.97279494	     40.34504463	      0.00000000	      0.00000000
      5.00500000	    -23.33538400	     -6.61604110	      2.47099867	      0.06353020	      0.99060073	     -0.23019150	      0.00000000	      0.50000000	      0.00000000	      0.25000000	     78.90618459	     -7.22937166	     -2.89088218	    102.70763291	      1.79258636	    -12.38362201	    -11.40592192	      0.00000000	      0.00000000	     72.08402097	     -2.70075870	     10.57187705	     52.63040398	      0.91857384	     -4.17701337	    -17.85315486	      0.00000000	      0.00000000	    -46.24460522	     10.19005528	      2.05433822	     85.50894874	     -8.26619266	     28.39405849	     53.39238469	     48.42250793	      0.00000000	      0.00000000	     89.19811126	    -34.54678930	     56.16521402	     64.86276753	     40.35573049	      0.00000000	      0.00000000
      5.01000000	    -23.53425169	     -6.54647388	      1.80343984	      0.06318518	      0.98995797	     -0.23136671	      0.00000000	      0.50000000	      0.00000000	      0.25000000	     80.83941262	     -7.05867909	     -2.25709308	    104.51916975	      1.82420364	    -11.90095015	    -10.92728531	      0.00000000	      0.00000000	     70.58448215	     -3.27480517	     10.07053473	     50.43626710	      0.88027892	     -5.71100992	    -18.83903273	      0.00000000	      0.00000000	    -45.96153243	     10.34498242	      1.58407755	     86.70472733	     -7.30598949	     31.32559100	     51.02804391	     48.32653613	      0.00000000	      0.00000000	     89.23706626	    -36.74206088	     57.98966393	     65.63166408	     40.92876759	      0.00000000	      0.00000000
      5.01500000	    -23.69131660	     -6.65198655	      1.01445490	      0.06299253	      0.98964379	     -0.23204829	      0.00000000	      0.50000000	      0.00000000	      0.25000000	     82.66333974	     -6.58846114	     -1.84556138	    106.12376287	      1.85220908	    -11.95926002	    -10.68737742	      0.00000000	      0.00000000	     69.04663107	     -4.15229341	      9.64125588	     48.34225509	      0.84373152	     -6.40043003	    -18.62518493	      0.00000000	      0.00000000	    -45.89407873	     10.38853733	      2.12420919	     86.92612462	     -7.03744737	     31.53582499	     51.05851775	     48.33746919	      0.00000000	      0.00000000	     89.19643953	    -37.13214666	     58.20002404	     65.54078001	     40.97270450	      0.00000000	      0.00000000
      5.02000000	    -23.89593407	     -6.90406747	      0.30120263	      0.06271459	      0.98917288	     -0.23282104	      0.00000000	      0.50000000	      0.00000000	      0.25000000	     84.55410697	     -6.17233248	     -1.66114542	    107.65868448	      1.87899851	    -11.99951014	    -10.52627818	      0.00000000	      0.00000000	     67.59406855	     -5.00267995	      9.38517664	     46.31373086	      0.80832709	     -6.83806340	    -18.34340692	      0.00000000	      0.00000000	    -45.80345220	     10.61689964	      2.73563789	     87.18564157	     -6.79670278	     31.74073083	     51.09619038	     48.35159441	      0.00000000	      0.00000000	     89.14365205	    -37.44847414	     58.38135202	     65.45845740	     40.99814611	      0.00000000	      0.00000000
      5.02500000	    -23.96139418	     -6.85882840	     -0.56053794	      0.06289189	      0.98926625	     -0.23329474	      0.00000000	      0.50000000	      0.00000000	      0.25000000	     86.37212231	     -5.68728212	     -1.18720571	    109.08041068	      1.90381232	    -12.16798140	    -10.15197887	      0.00000000	      0.00000000	     65.86821306	     -5.91996812	      8.61958632	     44.26342698	      0.77254254	     -7.51451504	    -18.02606481	      0.00000000	      0.00000000	    -45.83412390	     10.52593817	      3.26919224	     87.39210378	     -6.55300278	     32.08862983	     51.07274178	     48.36531387	      0.00000000	      0.00000000	     89.09813614	    -37.83766878	     58.76706969	     65.35459721	     41.04665852	      0.00000000	      0.00000000
      5.03000000	    -23.97870002	     -6.73448850	     -1.40315317	      0.06323723	      0.98948501	     -0.23395699	      0.00000000	      0.50000000	      0.00000000	      0.25000000	     88.12212261	     -5.30522621	     -0.69447130	    110.42397762	      1.92726198	    -12.25868220	     -9.58857564	      0.00000000	      0.00000000	     64.01466119	     -6.70264825	      7.80172021	     42.16889959	      0.73598614	     -8.35466009	    -18.26026433	      0.00000000	      0.00000000	    -45.87822730	     10.39049265	      3.40939014	     87.90112036	     -6.32999104	     34.17348640	     50.30559408	     48.36789185	      0.00000000	      0.00000000	     89.16489805	    -39.02458079	     60.31875090	     65.68581879	     41.43532966	      0.00000000	      0.00000000
      5.03500000	    -24.15739342	     -6.99463578	     -2.22570430	      0.06349328	      0.98941766	     -0.23445402	      0.00000000	      0.50000000	      0.00000000	      0.25000000	     89.95865695	     -4.82906403	     -0.71001464	    111.60919055	      1.94794785	    -12.35475239	     -9.42814293	      0.00000000	      0.00000000	     62.47042612	     -7.66970310	      7.38661997	     40.27932595	      0.70300686	     -8.64196471	    -17.71589910	      0.00000000	      0.00000000	    -45.90080335	     10.52937560	      4.13731769	     88.08519679	     -6.10752206	     34.29563807	     50.41780163	     48.37702388	      0.00000000	      0.00000000	     89.07631772	    -39.25770051	     60.34442643	     65.65385128	     41.45808626	      0.00000000	      0.00000000
      5.04000000	    -23.93896275	     -6.81026750	     -3.17204895	      0.06406506	      0.99009242	     -0.23440131	      0.00000000	      0.50000000	      0.00000000	      0.25000000	     91.51505071	     -4.25822051	     -0.34032358	    112.72246518	      1.96737816	    -13.00639079	     -9.43566028	      0.00000000	      0.00000000	     60.42903147	     -8.62704407	      6.07447920	     38.41537921	      0.67047485	     -9.26435084	    -17.19767804	      0.00000000	      0.00000000	    -46.23371336	     10.08565246	      4.65925761	     88.18647623	     -6.03799850	     34.71330729	     50.43570842	     48.38031143	      0.00000000	      0.00000000	     89.05408643	    -39.54234373	     60.80344122	     65.65559837	     41.55714749	      0.00000000	      0.00000000
      5.04500000	    -23.88268491	     -6.76273217	     -3.86459336	      0.06450852	      0.99045444	     -0.23443767	      0.00000000	      0.50000000	      0.00000000	      0.25000000	     93.20203942	     -3.92406401	     -0.14504736	    113.76561206	      1.98558451	    -13.05860470	     -9.19987571	      0.00000000	      0.00000000	     58.69612107	     -9.38710605	      5.10496369	     36.71974233	      0.64088040	     -9.72735396	    -16.51328441	      0.00000000	      0.00000000	    -46.39920309	      9.93001958	      5.10144553	     88.31103847	     -5.97786560	     35.20276293	     50.50576397	     48.39518433	      0.00000000	      0.00000000	     89.04209821	    -39.81815130	     61.27648488	     65.63484793	     41.65555053	      0.00000000	      0.00000000
      5.05000000	    -23.85711522	     -6.77129934	     -4.63979156	      0.06506591	      0.99102895	     -0.23445607	      0.00000000	      0.50000000	      0.00000000	      0.25000000	     94.84673558	     -3.49561973	     -0.12685253	    114.63162224	      2.00069923	    -13.65193156	     -9.01215197	      0.00000000	      0.00000000	     57.05182141	    -10.24635633	      4.05073758	     35.22047302	      0.61471322	    -10.04389031	    -15.54850270	      0.00000000	      0.00000000	    -46.57621997	      9.78421553	      5.65162062	     88.45282727	     -6.04275647	     35.99347079	     50.64990205	     48.40998577	      0.00000000	      0.00000000	     89.04133613	    -40.12099029	     61.94764560	     65.66505227	     41.82941738	      0.00000000	      0.00000000
      5.05500000	    -23.89294420	     -6.85678226	     -5.40420529	      0.06549788	      0.99165397	     -0.23425417	      0.00000000	      0.50000000	      0.00000000	      0.25000000	     96.50596445	     -3.04506886	     -0.22397966	    115.33457035	      2.01296799	    -14.17085076	     -8.82908747	      0.00000000	      0.00000000	     55.58965848	    -11.17748350	      2.96019826	     33.92016488	      0.59201856	    -10.40189262	    -14.58476159	      0.00000000	      0.00000000	    -46.72896239	      9.65398415	      6.28435610	     88.55467435	     -6.03585960	     36.39575517	     50.79846919	     48.42213719	      0.00000000	      0.00000000	     88.99623278	    -40.27761596	     62.30033017	     65.64092548	     41.91496491	      0.00000000	      0.00000000
      5.06000000	    -24.02513953	     -7.10588719	     -5.97064628	      0.06585056	      0.99216110	     -0.23439546	      0.00000000	      0.50000000	      0.00000000	      0.25000000	     98.18028670	     -2.86984134	     -0.58131524	    115.92059269	      2.02319601	    -14.47347368	     -8.65957468	      0.00000000	      0.00000000	     54.33686771	    -11.97839591	      2.26711878	     32.76113915	      0.57178974	    -10.76353899	    -13.72970948	      0.00000000	      0.00000000	    -46.83112574	      9.84698417	      6.92107056	     88.66701668	     -5.90747095	     36.58548788	     50.93740328	     48.44304458	      0.00000000	      0.00000000	     88.91545305	    -40.39535738	     62.46034616	     65.59131637	     41.94139169	      0.00000000	      0.00000000
      5.06500000	    -23.88218510	     -7.01773798	     -6.76102523	      0.06638059	      0.99328666	     -0.23392598	      0.00000000	      0.50000000	      0.00000000	      0.25000000	     99.58951114	     -2.33746265	     -0.61122291	    116.39709329	      2.03151252	    -14.92844246	     -8.67084360	      0.00000000	      0.00000000	     52.75750045	    -12.85095223	      0.75747508	     31.79568578	      0.55493940	    -10.69159054	    -11.98059917	      0.00000000	      0.00000000	    -47.13981208	      9.42026084	      7.50044519	     88.71571642	     -6.20048569	     37.12348161	     51.31643416	     48.48092022	      0.00000000	      0.00000000	     88.96156178	    -40.36745225	     63.00577703	     65.50004494	     42.05112688	      0.00000000	      0.00000000
